<svg width="600" height="1200" viewBox="0 0 600 1200" fill="none" xmlns="http://www.w3.org/2000/svg">
<g clip-path="url(#clip0_47_2)" filter="url(#filter0_i_47_2)">
<rect width="600" height="1200" fill="#030E1C"/>
<g filter="url(#filter1_d_47_2)">
<rect x="-100" y="-100" width="200" height="200" rx="25" fill="#3865A0"/>
</g>
<rect x="339" y="558" width="120" height="120" rx="20" fill="#4E90E6"/>
<g filter="url(#filter2_d_47_2)">
<line x1="299.939" y1="715.018" x2="331.759" y2="683.198" stroke="#4E90E6" stroke-width="3"/>
</g>
<g filter="url(#filter3_d_47_2)">
<line x1="299.647" y1="683.342" x2="331.467" y2="715.162" stroke="#4E90E6" stroke-width="3"/>
</g>
<rect x="163.5" y="-85.5" width="295" height="295" rx="22.5" fill="#030E1C"/>
<rect x="163.5" y="-85.5" width="295" height="295" rx="22.5" stroke="#3865A0" stroke-width="5"/>
<line x1="355.939" y1="411.018" x2="387.759" y2="379.198" stroke="#4E90E6" stroke-width="3"/>
<line x1="355.647" y1="379.342" x2="387.467" y2="411.162" stroke="#4E90E6" stroke-width="3"/>
<line x1="403.939" y1="345.018" x2="435.759" y2="313.198" stroke="#4E90E6" stroke-width="3"/>
<line x1="403.647" y1="313.342" x2="435.467" y2="345.162" stroke="#4E90E6" stroke-width="3"/>
<line x1="403.939" y1="381.617" x2="421.617" y2="363.939" stroke="#4E90E6" stroke-width="3"/>
<line x1="404.061" y1="363.939" x2="421.738" y2="381.617" stroke="#4E90E6" stroke-width="3"/>
<line x1="56.9393" y1="518.617" x2="74.617" y2="500.939" stroke="#4E90E6" stroke-width="3"/>
<line x1="57.0607" y1="500.939" x2="74.7383" y2="518.617" stroke="#4E90E6" stroke-width="3"/>
<line x1="547.939" y1="306.018" x2="579.759" y2="274.198" stroke="#4E90E6" stroke-width="3"/>
<line x1="547.647" y1="274.342" x2="579.467" y2="306.162" stroke="#4E90E6" stroke-width="3"/>
<line x1="511.939" y1="237.018" x2="543.759" y2="205.198" stroke="#4E90E6" stroke-width="3"/>
<line x1="511.647" y1="205.342" x2="543.467" y2="237.162" stroke="#4E90E6" stroke-width="3"/>
<rect x="102" y="145" width="100" height="100" rx="15" fill="#4E90E6" fill-opacity="0.5"/>
<rect x="274" y="1023" width="327" height="200" rx="35" fill="#4E90E6" fill-opacity="0.5"/>
<rect x="389" y="16" width="120" height="120" rx="20" fill="#4E90E6"/>
<rect x="499.5" y="819.5" width="155" height="155" rx="22.5" fill="#030E1C"/>
<rect x="499.5" y="819.5" width="155" height="155" rx="22.5" stroke="#4E90E6" stroke-width="5"/>
<rect x="-27.5" y="1108.5" width="155" height="155" rx="22.5" fill="#030E1C"/>
<rect x="-27.5" y="1108.5" width="155" height="155" rx="22.5" stroke="#4E90E6" stroke-width="5"/>
<rect x="-139" y="954" width="300" height="200" rx="35" fill="#4E90E6" fill-opacity="0.5"/>
<rect x="54.5" y="338.5" width="95" height="95" rx="22.5" fill="#030E1C"/>
<rect x="54.5" y="338.5" width="95" height="95" rx="22.5" stroke="#3865A0" stroke-width="5"/>
</g>
<defs>
<filter id="filter0_i_47_2" x="0" y="0" width="600" height="1204" filterUnits="userSpaceOnUse" color-interpolation-filters="sRGB">
<feFlood flood-opacity="0" result="BackgroundImageFix"/>
<feBlend mode="normal" in="SourceGraphic" in2="BackgroundImageFix" result="shape"/>
<feColorMatrix in="SourceAlpha" type="matrix" values="0 0 0 0 0 0 0 0 0 0 0 0 0 0 0 0 0 0 127 0" result="hardAlpha"/>
<feMorphology radius="115" operator="erode" in="SourceAlpha" result="effect1_innerShadow_47_2"/>
<feOffset dy="4"/>
<feGaussianBlur stdDeviation="80"/>
<feComposite in2="hardAlpha" operator="arithmetic" k2="-1" k3="1"/>
<feColorMatrix type="matrix" values="0 0 0 0 0.0117647 0 0 0 0 0.054902 0 0 0 0 0.109804 0 0 0 1 0"/>
<feBlend mode="normal" in2="shape" result="effect1_innerShadow_47_2"/>
</filter>
<filter id="filter1_d_47_2" x="-116" y="-111" width="228" height="228" filterUnits="userSpaceOnUse" color-interpolation-filters="sRGB">
<feFlood flood-opacity="0" result="BackgroundImageFix"/>
<feColorMatrix in="SourceAlpha" type="matrix" values="0 0 0 0 0 0 0 0 0 0 0 0 0 0 0 0 0 0 127 0" result="hardAlpha"/>
<feOffset dx="-2" dy="3"/>
<feGaussianBlur stdDeviation="7"/>
<feComposite in2="hardAlpha" operator="out"/>
<feColorMatrix type="matrix" values="0 0 0 0 0.219608 0 0 0 0 0.396078 0 0 0 0 0.627451 0 0 0 1 0"/>
<feBlend mode="normal" in2="BackgroundImageFix" result="effect1_dropShadow_47_2"/>
<feBlend mode="normal" in="SourceGraphic" in2="effect1_dropShadow_47_2" result="shape"/>
</filter>
<filter id="filter2_d_47_2" x="294.879" y="682.137" width="41.9411" height="41.9412" filterUnits="userSpaceOnUse" color-interpolation-filters="sRGB">
<feFlood flood-opacity="0" result="BackgroundImageFix"/>
<feColorMatrix in="SourceAlpha" type="matrix" values="0 0 0 0 0 0 0 0 0 0 0 0 0 0 0 0 0 0 127 0" result="hardAlpha"/>
<feOffset dy="4"/>
<feGaussianBlur stdDeviation="2"/>
<feComposite in2="hardAlpha" operator="out"/>
<feColorMatrix type="matrix" values="0 0 0 0 0 0 0 0 0 0 0 0 0 0 0 0 0 0 0.25 0"/>
<feBlend mode="normal" in2="BackgroundImageFix" result="effect1_dropShadow_47_2"/>
<feBlend mode="normal" in="SourceGraphic" in2="effect1_dropShadow_47_2" result="shape"/>
</filter>
<filter id="filter3_d_47_2" x="294.587" y="682.282" width="41.9411" height="41.9412" filterUnits="userSpaceOnUse" color-interpolation-filters="sRGB">
<feFlood flood-opacity="0" result="BackgroundImageFix"/>
<feColorMatrix in="SourceAlpha" type="matrix" values="0 0 0 0 0 0 0 0 0 0 0 0 0 0 0 0 0 0 127 0" result="hardAlpha"/>
<feOffset dy="4"/>
<feGaussianBlur stdDeviation="2"/>
<feComposite in2="hardAlpha" operator="out"/>
<feColorMatrix type="matrix" values="0 0 0 0 0 0 0 0 0 0 0 0 0 0 0 0 0 0 0.25 0"/>
<feBlend mode="normal" in2="BackgroundImageFix" result="effect1_dropShadow_47_2"/>
<feBlend mode="normal" in="SourceGraphic" in2="effect1_dropShadow_47_2" result="shape"/>
</filter>
<clipPath id="clip0_47_2">
<rect width="600" height="1200" fill="white"/>
</clipPath>
</defs>
</svg>
