<svg width="18" height="18" viewBox="0 0 18 18" fill="none" xmlns="http://www.w3.org/2000/svg">
<mask id="path-2-inside-1_61_2" fill="white">
<path d="M8.77499 18C6.91103 18 5.39999 16.489 5.39999 14.625V13.7812C5.39999 13.4085 5.7022 13.1062 6.07499 13.1062H15.525V17.325C15.525 17.6978 15.2228 18 14.85 18H8.77499Z"/>
</mask>
<path d="M8.77499 18C6.91103 18 5.39999 16.489 5.39999 14.625V13.7812C5.39999 13.4085 5.7022 13.1062 6.07499 13.1062H15.525V17.325C15.525 17.6978 15.2228 18 14.85 18H8.77499Z" stroke="#1760C0" stroke-width="2" mask="url(#path-2-inside-1_61_2)"/>
<mask id="path-3-inside-2_61_2" fill="white">
<path d="M5.39999 2.47498H8.77499C10.2662 2.47498 11.475 3.68381 11.475 5.17498V17.325C11.475 17.6978 11.1728 18 10.8 18H8.09999C6.60883 18 5.39999 16.7911 5.39999 15.3V2.47498Z"/>
</mask>
<path d="M5.39999 2.47498H8.77499C10.2662 2.47498 11.475 3.68381 11.475 5.17498V17.325C11.475 17.6978 11.1728 18 10.8 18H8.09999C6.60883 18 5.39999 16.7911 5.39999 15.3V2.47498Z" stroke="#1760C0" stroke-width="2" mask="url(#path-3-inside-2_61_2)"/>
<mask id="path-4-inside-3_61_2" fill="white">
<path d="M7.08749 16.65C5.22353 16.65 3.71249 15.139 3.71249 13.275L3.71249 12.4313C3.71249 12.0585 4.0147 11.7563 4.38749 11.7563H13.8375V15.975C13.8375 16.3478 13.5353 16.65 13.1625 16.65H7.08749Z"/>
</mask>
<path d="M7.08749 16.65C5.22353 16.65 3.71249 15.139 3.71249 13.275L3.71249 12.4313C3.71249 12.0585 4.0147 11.7563 4.38749 11.7563H13.8375V15.975C13.8375 16.3478 13.5353 16.65 13.1625 16.65H7.08749Z" stroke="#1760C0" stroke-width="2" mask="url(#path-4-inside-3_61_2)"/>
<mask id="path-5-inside-4_61_2" fill="white">
<path d="M3.71249 1.125H7.08749C8.57866 1.125 9.78749 2.33383 9.78749 3.825V15.975C9.78749 16.3478 9.48529 16.65 9.11249 16.65H6.41249C4.92133 16.65 3.71249 15.4412 3.71249 13.95V1.125Z"/>
</mask>
<path d="M3.71249 1.125H7.08749C8.57866 1.125 9.78749 2.33383 9.78749 3.825V15.975C9.78749 16.3478 9.48529 16.65 9.11249 16.65H6.41249C4.92133 16.65 3.71249 15.4412 3.71249 13.95V1.125Z" stroke="#1760C0" stroke-width="2" mask="url(#path-5-inside-4_61_2)"/>
</svg>
